<?xml version="1.0" encoding="UTF-8"?>
<svg version="1.1" xmlns="http://www.w3.org/2000/svg" width="763" height="327">
<path d="M0 0 C0.66 0 1.32 0 2 0 C5.51599385 22.26796105 0.1665676 44.32245648 -4.125 66.125 C-10.30567626 97.53742841 -12.87863491 127.7297548 5 156 C16.68171413 172.58592926 32.32480572 182.74882567 51 190 C52.16595703 190.46019531 52.16595703 190.46019531 53.35546875 190.9296875 C65.49150548 195.34693164 77.98952012 196.5572294 90.8125 196.4375 C91.50899658 196.43445862 92.20549316 196.43141724 92.9230957 196.42828369 C104.01514648 196.3568879 114.41927132 195.50220266 125 192 C125.68400879 191.78037598 126.36801758 191.56075195 127.07275391 191.33447266 C151.80467712 183.22065619 172.85155238 168.53930831 185 145 C189.86478816 133.63644904 192.38922015 122.65129293 192.3125 110.3125 C192.30404053 108.87076416 192.30404053 108.87076416 192.29541016 107.39990234 C191.88932588 83.36051702 182.56502229 61.79077491 165.80078125 44.6796875 C150.34558619 29.89270868 130.22004998 21.55723072 108.8515625 21.8515625 C92.97543201 22.67799121 78.55825219 29.50245308 67.6484375 41.078125 C55.73986127 54.96205748 49.12613245 72.57681977 49.71875 90.97265625 C51.13176874 106.18223294 56.21161998 118.15685663 67 129 C66.62488281 128.44054687 66.24976563 127.88109375 65.86328125 127.3046875 C60.28387523 118.5631496 53.261758 105.75880312 55 95 C60.06060396 84.33464111 73.22270211 76.01015736 84 72 C99.31019582 67.08521697 116.57320191 64.89561112 131.76953125 71.2734375 C145.97053476 78.86333297 156.52703818 91.21205362 166.2421875 103.79296875 C167.90015326 105.87463687 169.66513313 107.76302335 171.5 109.6875 C173.77223274 112.31360505 174.01398352 113.08390112 174.625 116.75 C174 120 174 120 172.3125 121.9375 C169.36440698 123.29202922 168.20578958 123.74553246 165 123 C162.44444393 120.85972179 160.20736113 118.49361834 158 116 C157.85304688 116.53367187 157.70609375 117.06734375 157.5546875 117.6171875 C153.34458612 131.60246678 144.58794257 142.65415954 132 150 C113.65515544 159.46114259 94.75441606 161.52834497 75.06933594 155.67578125 C60.84721252 151.03127469 47.98342483 141.44256852 41 128 C30.12616301 105.42000762 27.70871166 82.6436719 35.83520508 58.65014648 C39.53581913 48.35364667 44.95940992 39.34013825 52 31 C52.46921875 30.39800781 52.9384375 29.79601562 53.421875 29.17578125 C64.97065647 14.73980442 83.61097084 5.56426838 101.75390625 3.27734375 C127.30572609 1.09421594 150.9748673 8.73053181 171.02734375 24.46484375 C193.14948841 43.33116685 207.4332671 67.93822482 211 97 C211.27785678 101.27568656 211.33485676 105.52862488 211.3125 109.8125 C211.30686035 110.95178955 211.3012207 112.0910791 211.29541016 113.26489258 C210.89629817 141.02688505 198.69159589 163.75367622 179.2644043 183.17236328 C156.21487667 205.34053725 124.13153564 215.18910229 92.77001953 215.18530273 C90.76721093 215.18748128 88.76444184 215.20597483 86.76171875 215.22460938 C74.62726779 215.24254206 62.93420145 214.01671392 51.3125 210.4375 C50.47581787 210.18137939 49.63913574 209.92525879 48.77709961 209.66137695 C20.52390238 200.62490782 -3.83316342 183.0753679 -17.8828125 156.5703125 C-36.91464356 117.80303896 -22.05484549 74.47455064 -10.140625 35.984375 C-9.53077563 34.01056317 -8.92139342 32.03660693 -8.3125 30.0625 C-8.02044678 29.11713379 -7.72839355 28.17176758 -7.42749023 27.19775391 C-5.20251188 19.89829701 -3.36354098 12.55657547 -1.7265625 5.10546875 C-1 2 -1 2 0 0 Z " fill="#044B39" transform="translate(100,104)"/>
<path d="M0 0 C20.18789932 0.22063278 38.36752658 10.46682905 52.625 24.1875 C62.37599932 34.30879043 69.77702393 46.65925304 73.375 60.3125 C73.57996094 61.08207031 73.78492187 61.85164063 73.99609375 62.64453125 C77.87732531 80.06992261 75.85753905 99.16996651 68.375 115.3125 C67.715 114.9825 67.055 114.6525 66.375 114.3125 C66.01832346 111.34324404 65.76687145 108.41796295 65.5625 105.4375 C62.8191794 73.77571799 48.62095178 47.83271451 24.375 27.3125 C24.045 27.9725 23.715 28.6325 23.375 29.3125 C24.035 29.3125 24.695 29.3125 25.375 29.3125 C48.39247814 53.97073523 62.86457087 87.41913201 62.375 121.3125 C39.73038265 117.19529685 18.85479598 102.50409043 5.82568359 83.71655273 C-1.08782465 73.32654554 -5.80262986 62.49549474 -8.625 50.3125 C-8.85058594 49.33925781 -9.07617188 48.36601563 -9.30859375 47.36328125 C-12.41855492 31.64189133 -10.48615057 16.69507576 -6.625 1.3125 C-4.85062154 -0.46187846 -2.40898554 0.05568215 0 0 Z " fill="#789C2A" transform="translate(23.625,5.6875)"/>
<path d="M0 0 C1.06275567 20.54660955 -4.51425952 38.18804787 -18 54 C-18.91458984 55.20849609 -18.91458984 55.20849609 -19.84765625 56.44140625 C-30.52467191 69.1336844 -47.79621045 76.81521939 -64 79 C-68.01682975 79.19880822 -71.98374002 79.19538562 -76 79 C-70.88485427 53.8505335 -52.65706426 31.76621016 -31.67578125 17.75 C-30.79277344 17.1725 -29.90976563 16.595 -29 16 C-37.45548082 20.24099351 -44.90045344 24.6734359 -52 31 C-52.75925781 31.66515625 -53.51851562 32.3303125 -54.30078125 33.015625 C-65.49245832 43.45345854 -73.89060461 58.01836766 -77 73 C-77.66 73 -78.32 73 -79 73 C-83.23376287 64.53247425 -79.87099946 49.95707662 -77.25390625 41.39453125 C-71.0094332 24.48971169 -58.70304619 11.01476117 -42.41015625 3.3203125 C-27.97508198 -2.26852496 -15.1264221 -2.91092659 0 0 Z " fill="#789C2B" transform="translate(186,47)"/>
<path d="M0 0 C1.11375 0.2475 1.11375 0.2475 2.25 0.5 C5.19006578 1.11925696 5.19006578 1.11925696 9 1 C9.33 0.67 9.66 0.34 10 0 C14.26907775 -0.5282226 17.83259661 -0.7588122 21.5 1.625 C23.3865445 4.61202879 23.93045351 6.45312926 24 10 C22.09967846 16.33440514 22.09967846 16.33440514 18.625 18.4375 C15.99305327 19.00148859 13.68108796 19.04035082 11 19 C11.03315831 22.04453575 11.10049106 25.08191807 11.1875 28.125 C11.19330078 28.9809375 11.19910156 29.836875 11.20507812 30.71875 C11.42104708 36.95785311 12.63833901 39.55843072 17 44 C22.10590585 54.39416548 21.92258231 63.1437766 18.31640625 74 C15.95644281 79.37819562 12.87107493 81.75832933 7.5703125 84.05078125 C2.32755064 85.85945441 -1.61381003 86.28800195 -7 85 C-7.33 83.35 -7.66 81.7 -8 80 C-8.86625 80.61875 -9.7325 81.2375 -10.625 81.875 C-18.71941152 86.97148132 -27.72843749 86.91706628 -37 86 C-43.80239666 84.42497699 -50.05378724 81.19307413 -54.14453125 75.37109375 C-55.1934763 73.61499474 -56.11383443 71.84322438 -57 70 C-57.30035156 69.39671875 -57.60070312 68.7934375 -57.91015625 68.171875 C-59.58429653 64.58999347 -60.13344829 61.9100349 -60 58 C-58.37675914 57.77837671 -56.751279 57.57310197 -55.125 57.375 C-54.22007812 57.25898438 -53.31515625 57.14296875 -52.3828125 57.0234375 C-51.20332031 57.01183594 -51.20332031 57.01183594 -50 57 C-49.34 57.66 -48.68 58.32 -48 59 C-42.66331762 57.22391072 -42.66331762 57.22391072 -39 53.125 C-37.92529685 49.76655265 -37.56690285 48.2244686 -39 45 C-41.47636012 43.62533375 -41.47636012 43.62533375 -44 43 C-44 45.64 -44 48.28 -44 51 C-47.63 51.66 -51.26 52.32 -55 53 C-56.97125294 49.05749412 -56.44717024 44.29780285 -56 40 C-54.257429 36.83755633 -52.90124826 35.55665334 -49.875 33.6875 C-43.99096386 32.28044788 -38.87752257 31.90762323 -33.5625 35 C-32.716875 35.66 -31.87125 36.32 -31 37 C-26.95858414 37 -24.75032422 35.24117491 -21.3515625 33.19140625 C-17.32361679 31.15066964 -13.46281184 30.86105371 -9 30.875 C-8.175 30.87242187 -7.35 30.86984375 -6.5 30.8671875 C-3.91509428 31.00451062 -1.52978582 31.46927202 1 32 C0.9193749 28.54069307 0.80651536 25.08318225 0.6875 21.625 C0.65366211 20.14773437 0.65366211 20.14773437 0.61914062 18.640625 C0.58369141 17.69960937 0.54824219 16.75859375 0.51171875 15.7890625 C0.48553467 14.91975098 0.45935059 14.05043945 0.43237305 13.15478516 C0.18654782 10.61399973 0.18654782 10.61399973 -3 9 C-2.5020163 5.26512223 -2.12508244 3.18762365 0 0 Z M11 8 C11 8.99 11 9.98 11 11 C12.32 10.67 13.64 10.34 15 10 C15 9.34 15 8.68 15 8 C13.68 8 12.36 8 11 8 Z M-20 45 C-20 45.33 -20 45.66 -20 46 C-18.98679687 46.23783203 -18.98679687 46.23783203 -17.953125 46.48046875 C-10.66216511 48.38749728 -10.66216511 48.38749728 -7.5 51.3125 C-3.3581503 58.73331404 -2.80820857 66.78078216 -5 75 C1.150228 74.81660519 1.150228 74.81660519 6.5 72.125 C10.07839141 67.05561216 9.54701905 60.94786908 9 55 C7.33015734 49.61833564 3.85197239 46.68406983 -1 44 C-4.19156448 42.93614517 -6.58497476 42.83322018 -9.9375 42.8125 C-10.97777344 42.79832031 -12.01804687 42.78414062 -13.08984375 42.76953125 C-15.95046613 42.99607718 -17.57670151 43.52266381 -20 45 Z M-32.6328125 61.80078125 C-34.96254966 65.54832988 -37.65444537 66.67108665 -41.8125 67.6875 C-42.534375 67.790625 -43.25625 67.89375 -44 68 C-40.72369038 71.79362167 -37.38630849 72.86913004 -32.44140625 73.3359375 C-30.52134766 73.35527344 -30.52134766 73.35527344 -28.5625 73.375 C-26.64630859 73.41753906 -26.64630859 73.41753906 -24.69140625 73.4609375 C-20.43246367 72.92913303 -18.30575492 71.68249796 -15 69 C-13.45413124 65.90826248 -13.70640479 63.40570448 -14 60 C-16.95170701 56.26117112 -19.06504012 55.15582665 -23.75 54.375 C-28.97384037 54.38444637 -30.20883262 57.62760508 -32.6328125 61.80078125 Z " fill="#054A38" transform="translate(639,125)"/>
<path d="M0 0 C0.763125 0.165 1.52625 0.33 2.3125 0.5 C5.30369741 1.05650184 7.23659881 1.38170059 10 0 C14.20092625 -0.49470367 17.78821114 -0.65022817 21.5625 1.375 C23.81747381 5.49277826 23.73176 9.4188775 23 14 C21.5 16.5625 21.5 16.5625 19 18 C16.29462524 18.59373683 13.78153174 18.81456455 11 19 C11 23.62 11 28.24 11 33 C12.32 33.66 13.64 34.32 15 35 C17.13586678 38.20380017 17.23132175 39.01939967 17.125 42.6875 C17.10695313 43.49574219 17.08890625 44.30398437 17.0703125 45.13671875 C17.04710937 45.75160156 17.02390625 46.36648437 17 47 C14.69 47 12.38 47 10 47 C11.6396875 48.051875 11.6396875 48.051875 13.3125 49.125 C17.45808503 52.1232211 19.32639539 55.0055728 20.46484375 60.06640625 C21.54802606 67.06449418 20.4820042 72.97899143 17.375 79.3125 C13.51563945 83.67967115 9.84547726 85.66765423 4.0234375 86.34765625 C-1.75133828 86.51244514 -6.0381885 86.22517747 -11 83 C-12.88684423 81.68405381 -12.88684423 81.68405381 -15 81 C-16.77740021 81.87350152 -16.77740021 81.87350152 -18.4375 83.375 C-23.95058541 87.13626388 -29.55779176 86.86056964 -36 86 C-40.77418278 84.64995463 -43.34555844 82.82224708 -46.4375 78.9375 C-49.4222804 73.32611286 -49.53405733 68.24847074 -49 62 C-47.5 58.3125 -47.5 58.3125 -46 56 C-47.65 55.34 -49.3 54.68 -51 54 C-51 51.03 -51 48.06 -51 45 C-49.02 45 -47.04 45 -45 45 C-45.12375 43.14375 -45.12375 43.14375 -45.25 41.25 C-45.23914389 38.17772215 -45.16270474 37.23779924 -43.375 34.625 C-38.47217791 31.27043752 -33.87683221 30.4844884 -28 31 C-22.13371883 32.82057002 -19.45039539 35.12885356 -16 40 C-14.90493508 43.28519475 -14.90039392 45.73663415 -14.9375 49.1875 C-14.94652344 50.27417969 -14.95554687 51.36085937 -14.96484375 52.48046875 C-14.97644531 53.31191406 -14.98804688 54.14335937 -15 55 C-16.51980469 55.03867188 -16.51980469 55.03867188 -18.0703125 55.078125 C-19.42191597 55.13444181 -20.77347681 55.19178833 -22.125 55.25 C-22.79015625 55.26417969 -23.4553125 55.27835938 -24.140625 55.29296875 C-29.49992644 55.5556796 -33.18862573 57.18862573 -37 61 C-37.59607795 66.15862488 -37.59607795 66.15862488 -35.796875 70.7421875 C-33.41314226 72.41080042 -31.88565421 72.33588257 -29 72.25 C-28.13375 72.23453125 -27.2675 72.2190625 -26.375 72.203125 C-23.85176221 72.0807181 -23.85176221 72.0807181 -21 71 C-20.19787372 69.12612784 -20.19787372 69.12612784 -19.8125 66.9375 C-19.544375 65.638125 -19.27625 64.33875 -19 63 C-15.7 63 -12.4 63 -9 63 C-8.71125 64.11375 -8.4225 65.2275 -8.125 66.375 C-7.30758671 70.00291092 -7.30758671 70.00291092 -5 72 C-1.28697026 72.55201538 2.28591157 72.53941375 6 72 C8.49662867 70.08896504 8.49662867 70.08896504 9 67 C8.87793324 63.46006389 8.74567717 61.0168325 6.625 58.125 C2.76234272 55.45085265 -1.66964938 55.67818899 -6.1875 55.4375 C-7.31188477 55.37272461 -7.31188477 55.37272461 -8.45898438 55.30664062 C-10.30578375 55.20077315 -12.15286834 55.0999024 -14 55 C-13.56391278 40.50010002 -13.56391278 40.50010002 -9 35 C-5.92165011 32.96402205 -2.76122914 31 1 31 C0.91935365 27.7073118 0.80649721 24.41650779 0.6875 21.125 C0.65366211 19.71927734 0.65366211 19.71927734 0.61914062 18.28515625 C0.58369141 17.38925781 0.54824219 16.49335938 0.51171875 15.5703125 C0.48553467 14.74289551 0.45935059 13.91547852 0.43237305 13.06298828 C0.16903363 10.60672068 0.16903363 10.60672068 -3 9 C-2.5020163 5.26512223 -2.12508244 3.18762365 0 0 Z M11 8 C11 8.99 11 9.98 11 11 C12.32 10.67 13.64 10.34 15 10 C15 9.34 15 8.68 15 8 C13.68 8 12.36 8 11 8 Z M-33 41 C-33.66 42.32 -34.32 43.64 -35 45 C-32.03 45 -29.06 45 -26 45 C-26.33 44.01 -26.66 43.02 -27 42 C-29.97 41.505 -29.97 41.505 -33 41 Z M0 41 C-0.66 42.32 -1.32 43.64 -2 45 C0.64 45.33 3.28 45.66 6 46 C6 44.68 6 43.36 6 42 C3.03 41.505 3.03 41.505 0 41 Z " fill="#054A38" transform="translate(437,125)"/>
<path d="M0 0 C5.65570296 4.44186105 8.90562418 10.8204501 10.1875 17.8125 C10.91577841 27.09804975 10.05345896 36.20847913 4.1875 43.8125 C-0.76617885 47.94056571 -6.47097054 50.02719102 -12.9453125 49.70703125 C-14.5790221 49.47884104 -16.1990468 49.15578791 -17.8125 48.8125 C-17.8125 46.8325 -17.8125 44.8525 -17.8125 42.8125 C-18.4725 43.410625 -19.1325 44.00875 -19.8125 44.625 C-28.25847861 50.78352607 -37.72770174 50.86569075 -47.8125 49.8125 C-54.99573285 48.28104934 -60.50420912 44.77613928 -64.8125 38.8125 C-67.82103461 33.43620958 -70.30902583 28.02201481 -70.8125 21.8125 C-67.13839215 20.63678549 -63.64320817 20.73883254 -59.8125 20.8125 C-59.4825 21.4725 -59.1525 22.1325 -58.8125 22.8125 C-53.75686587 21.02589854 -53.75686587 21.02589854 -49.8125 17.5625 C-48.51315575 13.98930332 -49.0210064 11.48215214 -49.8125 7.8125 C-51.1325 7.8125 -52.4525 7.8125 -53.8125 7.8125 C-54.1425 10.1225 -54.4725 12.4325 -54.8125 14.8125 C-58.1125 15.4725 -61.4125 16.1325 -64.8125 16.8125 C-67.02083433 12.7855374 -67.09525206 9.40695972 -66.49609375 4.96875 C-65.30961941 1.22627092 -63.04383442 -0.07724079 -59.8125 -2.1875 C-56.13135505 -4.02807247 -51.83956492 -3.55590657 -47.8125 -3.1875 C-44.875 -1.8125 -44.875 -1.8125 -42.8125 -0.1875 C-41.8225 0.4725 -40.8325 1.1325 -39.8125 1.8125 C-39.3278125 1.47476563 -38.843125 1.13703125 -38.34375 0.7890625 C-26.63959057 -6.99870512 -12.13056105 -7.77196119 0 0 Z M-30.8125 9.8125 C-30.14863281 9.95945313 -29.48476563 10.10640625 -28.80078125 10.2578125 C-22.47923952 11.86357638 -19.42202303 13.33999734 -15.8125 18.8125 C-14.30311368 21.83127265 -14.66883563 24.94329585 -14.6875 28.25 C-14.68169922 29.2719043 -14.68169922 29.2719043 -14.67578125 30.31445312 C-14.6818626 33.41898046 -14.82359688 35.84579065 -15.8125 38.8125 C-11.69621127 39.1418031 -9.24346298 39.0239158 -5.5 37.1875 C-1.29251358 33.46925619 -0.93425793 30.34664998 -0.5 24.875 C-0.6551504 20.09271715 -1.85728248 15.93627075 -5.171875 12.3359375 C-10.0590979 8.02812763 -14.44017581 6.52440515 -20.875 6.5 C-21.89722656 6.48324219 -22.91945313 6.46648437 -23.97265625 6.44921875 C-27.13413483 6.85364448 -28.4836864 7.69590442 -30.8125 9.8125 Z M-38.8125 18.8125 C-40.33698631 21.7951906 -41.75190067 24.630702 -42.8125 27.8125 C-45 28.875 -45 28.875 -47.8125 29.8125 C-49.4521875 30.369375 -49.4521875 30.369375 -51.125 30.9375 C-52.4553125 31.370625 -52.4553125 31.370625 -53.8125 31.8125 C-50.41148961 35.44806283 -48.4957623 36.71189122 -43.4140625 37.015625 C-42.10179687 37.03109375 -40.78953125 37.0465625 -39.4375 37.0625 C-38.13039063 37.08828125 -36.82328125 37.1140625 -35.4765625 37.140625 C-30.66078591 36.70936142 -28.17713888 35.17713888 -24.8125 31.8125 C-24.45610439 29.70832032 -24.45610439 29.70832032 -24.5 27.375 C-24.48324219 26.59253906 -24.46648438 25.81007812 -24.44921875 25.00390625 C-24.89857955 22.29324592 -25.65426487 21.46529365 -27.8125 19.8125 C-30.56328884 18.89557039 -32.17198913 18.70363917 -35 18.75 C-36.258125 18.770625 -37.51625 18.79125 -38.8125 18.8125 Z " fill="#054A38" transform="translate(738.8125,161.1875)"/>
<path d="M0 0 C0.7425 0.61875 1.485 1.2375 2.25 1.875 C2.25 2.535 2.25 3.195 2.25 3.875 C3.24 4.205 4.23 4.535 5.25 4.875 C13.22476536 16.76749943 14.62217732 28.8244753 12.03125 42.8359375 C9.79396305 51.53898374 5.74698231 57.84131188 -1.75 62.875 C-12.92506242 68.90365209 -25.91862932 69.66264819 -38.30078125 67.15625 C-45.43868442 64.70784061 -50.65733038 61.52434268 -54.125 54.625 C-56.27082924 49.18829819 -56.82915378 44.2943412 -55.0546875 38.671875 C-52.89670709 33.77561692 -50.41486608 31.41947241 -45.75 28.875 C-46.41 28.215 -47.07 27.555 -47.75 26.875 C-47.98395241 23.76763215 -47.58202873 20.87243683 -46.75 17.875 C-42.75926752 13.56069462 -39.59015615 12.99566598 -33.9375 12.625 C-28.48866239 12.7163213 -24.32863158 14.29636842 -20.4375 18.1875 C-17.50422004 22.85901994 -16.64970325 26.61965681 -16.703125 32.08203125 C-16.71327637 33.42938354 -16.71327637 33.42938354 -16.72363281 34.80395508 C-16.73233398 35.4873999 -16.74103516 36.17084473 -16.75 36.875 C-17.71824707 36.904729 -17.71824707 36.904729 -18.70605469 36.93505859 C-21.63777221 37.03046328 -24.56879232 37.14007971 -27.5 37.25 C-29.02367187 37.29640625 -29.02367187 37.29640625 -30.578125 37.34375 C-32.04765625 37.40175781 -32.04765625 37.40175781 -33.546875 37.4609375 C-34.44760742 37.4923584 -35.34833984 37.5237793 -36.27636719 37.55615234 C-38.90522787 37.89500865 -40.56402304 38.37715526 -42.75 39.875 C-43.61225066 43.20082397 -43.99962539 45.75168576 -43.25 49.125 C-40.59196881 52.22603638 -36.70447973 53.59538376 -32.72949219 54.1640625 C-30.60242925 54.27670129 -28.50457934 54.29143244 -26.375 54.25 C-25.25399902 54.2358606 -25.25399902 54.2358606 -24.11035156 54.22143555 C-17.08426628 54.02949525 -11.57873373 53.07512624 -5.9375 48.6875 C0.47905536 40.43764311 1.35515269 33.37395052 0.25 22.875 C-1.35630364 16.4227129 -4.26669484 12.53053677 -9.75 8.875 C-15.11039356 6.15836049 -19.39124111 5.32861927 -25.375 5.375 C-26.1575415 5.37564453 -26.94008301 5.37628906 -27.74633789 5.37695312 C-34.27105121 5.5422201 -39.29754935 7.04628706 -45.24609375 9.78125 C-47.75 10.875 -47.75 10.875 -50.75 10.875 C-51.42154933 9.58586513 -52.08708859 8.29359796 -52.75 7 C-53.12125 6.28070313 -53.4925 5.56140625 -53.875 4.8203125 C-54.75 2.875 -54.75 2.875 -54.75 0.875 C-37.16543528 -6.92052615 -17.43895552 -10.73787539 0 0 Z M-36.75 23.875 C-36.75 24.865 -36.75 25.855 -36.75 26.875 C-33.78 26.875 -30.81 26.875 -27.75 26.875 C-28.08 25.885 -28.41 24.895 -28.75 23.875 C-32.85223585 22.85959888 -32.85223585 22.85959888 -36.75 23.875 Z " fill="#054B39" transform="translate(522.75,143.125)"/>
<path d="M0 0 C1.32 -1.32 2.64 -2.64 4 -4 C10.01018409 -0.90211414 12.75248904 1.37575716 15 8 C15.53625 8.825 16.0725 9.65 16.625 10.5 C18.43060305 13.78291463 18.87083842 16.25431412 19 20 C17.11570248 26.04958678 17.11570248 26.04958678 14.3125 28.4375 C10.83201818 29.28410369 7.57773294 29.11925776 4 29 C4 31.97 4 34.94 4 38 C6.31 37.67 8.62 37.34 11 37 C14 43.625 14 43.625 14 47 C10.19956554 48.73734147 8.40285423 49 4 49 C4 55.27 4 61.54 4 68 C-3.71484375 68.09765625 -3.71484375 68.09765625 -6 68 C-7 67 -7 67 -7.09765625 63.62109375 C-7.09098369 62.22652923 -7.07902532 60.83198257 -7.0625 59.4375 C-7.05798828 58.72658203 -7.05347656 58.01566406 -7.04882812 57.28320312 C-7.03700864 55.52209987 -7.01907263 53.76103964 -7 52 C-8.02738281 51.97421875 -9.05476563 51.9484375 -10.11328125 51.921875 C-19.89082545 51.56705907 -29.10251238 50.97920869 -37 44.5625 C-42.5197221 37.49035606 -42.93884891 31.87733804 -42 23 C-38.68212641 15.872716 -33.03061888 12.75710544 -26 10 C-26.103125 8.948125 -26.20625 7.89625 -26.3125 6.8125 C-26 3 -26 3 -23.8125 0.1875 C-15.5858686 -6.21099109 -8.64633313 -4.32316657 0 0 Z M-15 7 C-15 7.99 -15 8.98 -15 10 C-12.36 10 -9.72 10 -7 10 C-7.66 8.68 -8.32 7.36 -9 6 C-12.7763932 5.7018576 -12.7763932 5.7018576 -15 7 Z M4 12 C4 14.31 4 16.62 4 19 C5.32 19 6.64 19 8 19 C7.34414811 15.39007621 7.34414811 15.39007621 6 12 C5.34 12 4.68 12 4 12 Z M-28 24 C-29.61082802 27.22165604 -29.6006214 30.51639589 -29 34 C-26.31213353 37.50915901 -24.32386416 39.28922781 -20 40 C-15.32977236 40.13207657 -10.67317059 40.0432701 -6 40 C-6 33.4 -6 26.8 -6 20 C-17.77256045 19.13750928 -17.77256045 19.13750928 -28 24 Z " fill="#054A39" transform="translate(360,160)"/>
<path d="M0 0 C8.25 0 16.5 0 25 0 C25.99 2.97 26.98 5.94 28 9 C27.34 9 26.68 9 26 9 C25.7525 9.5465625 25.505 10.093125 25.25 10.65625 C23.19907587 14.50173274 20.47900896 17.85897331 17.875 21.34375 C14.90071092 25.55732619 13.73804619 28.04575532 13.875 33.25 C13.90207031 34.58804688 13.90207031 34.58804688 13.9296875 35.953125 C13.95289063 36.62859375 13.97609375 37.3040625 14 38 C17.1749094 39.9078584 19.10585211 40.1609041 22.75 39.625 C24.1525 39.41875 25.555 39.2125 27 39 C28.485 43.95 28.485 43.95 30 49 C23.38313906 52.1028218 15.39091478 52.36635717 8.4140625 50.1953125 C4.54295835 48.10865785 2.55551877 45.83800316 0.9375 41.75 C-1.2739209 32.91886523 1.30038999 26.62776776 5.33203125 18.69921875 C6.97325846 16.04327495 8.70246813 14.09817986 11 12 C7.37 11.67 3.74 11.34 0 11 C0 7.37 0 3.74 0 0 Z " fill="#064A39" transform="translate(544,174)"/>
<path d="M0 0 C2.64 0 5.28 0 8 0 C8.20496094 0.78246094 8.40992188 1.56492187 8.62109375 2.37109375 C8.89050781 3.38300781 9.15992188 4.39492188 9.4375 5.4375 C9.83775391 6.95150391 9.83775391 6.95150391 10.24609375 8.49609375 C10.75978077 10.91752001 10.75978077 10.91752001 12 12 C12.99 8.04 13.98 4.08 15 0 C17.64 0 20.28 0 23 0 C23.99 3.96 24.98 7.92 26 12 C27.50052409 8.99895182 28.38848592 6.90648893 29.125 3.75 C29.41375 2.5125 29.7025 1.275 30 0 C32.31 0 34.62 0 37 0 C38.25618211 3.76854632 37.57428115 5.55041904 36.6015625 9.3828125 C36.12976563 11.25646484 36.12976563 11.25646484 35.6484375 13.16796875 C35.39658691 14.1412915 35.39658691 14.1412915 35.13964844 15.13427734 C34.62565275 17.12247509 34.12433285 19.11354353 33.625 21.10546875 C31.14468837 30.85531163 31.14468837 30.85531163 30 32 C27.69 32 25.38 32 23 32 C21.68 27.05 20.36 22.1 19 17 C17.68 21.95 16.36 26.9 15 32 C12.69 32 10.38 32 8 32 C5.69562372 24.84172476 3.58771724 17.66583466 1.75 10.375 C1.57500977 9.68857422 1.40001953 9.00214844 1.21972656 8.29492188 C0.51407427 5.44675586 0 2.94704755 0 0 Z " fill="#789A2D" transform="translate(475,256)"/>
<path d="M0 0 C7 0 7 0 8.62084961 1.28515625 C8.96124268 1.87167969 9.30163574 2.45820313 9.65234375 3.0625 C10.03583984 3.69414062 10.41933594 4.32578125 10.81445312 4.9765625 C11.18505859 5.64429688 11.55566406 6.31203125 11.9375 7 C12.33517578 7.66773438 12.73285156 8.33546875 13.14257812 9.0234375 C14.11807693 10.66885717 15.06220268 12.33280476 16 14 C16.33 9.38 16.66 4.76 17 0 C19.64 0 22.28 0 25 0 C25 10.56 25 21.12 25 32 C18 32 18 32 15.85546875 29.953125 C15.30503906 29.06109375 14.75460937 28.1690625 14.1875 27.25 C13.62417969 26.36828125 13.06085937 25.4865625 12.48046875 24.578125 C11.23801722 22.41448908 10.07738391 20.24936739 9 18 C8.93941406 18.92683594 8.87882813 19.85367187 8.81640625 20.80859375 C8.73261719 22.00613281 8.64882813 23.20367187 8.5625 24.4375 C8.48128906 25.63246094 8.40007813 26.82742188 8.31640625 28.05859375 C8 31 8 31 7 32 C4.69 32 2.38 32 0 32 C0 21.44 0 10.88 0 0 Z " fill="#789A2E" transform="translate(601,256)"/>
<path d="M0 0 C7 0 7 0 8.62084961 1.37695312 C8.96124268 2.00537109 9.30163574 2.63378906 9.65234375 3.28125 C10.03583984 3.95800781 10.41933594 4.63476562 10.81445312 5.33203125 C11.37036133 6.40517578 11.37036133 6.40517578 11.9375 7.5 C12.33517578 8.21542969 12.73285156 8.93085938 13.14257812 9.66796875 C14.11886575 11.43234397 15.06267567 13.21462033 16 15 C16.33 10.05 16.66 5.1 17 0 C19.31 0 21.62 0 24 0 C25.88319268 1.88319268 25.13054285 5.11930137 25.1328125 7.625 C25.13424759 8.61814209 25.13424759 8.61814209 25.13571167 9.63134766 C25.13639326 11.03352961 25.13454042 12.4357147 25.13037109 13.83789062 C25.12502246 15.99095713 25.1303167 18.14381502 25.13671875 20.296875 C25.13605796 21.65625046 25.13477679 23.0156258 25.1328125 24.375 C25.13168457 25.62023437 25.13055664 26.86546875 25.12939453 28.1484375 C25 31 25 31 24 32 C20.74609375 32.53125 20.74609375 32.53125 17 32 C14.79745902 29.8088397 13.48321537 27.24259837 12.0625 24.5 C11.66482422 23.78457031 11.26714844 23.06914062 10.85742188 22.33203125 C9.88113425 20.56765603 8.93732433 18.78537967 8 17 C7.67 21.95 7.34 26.9 7 32 C4.69 32 2.38 32 0 32 C0 21.44 0 10.88 0 0 Z " fill="#779A2C" transform="translate(562,256)"/>
<path d="M0 0 C2.85138706 1.35912418 3.88726819 2.49808075 6 5 C6.9375 7.6875 6.9375 7.6875 7 10 C6.67 10.66 6.34 11.32 6 12 C3.69 12 1.38 12 -1 12 C-1.33 10.35 -1.66 8.7 -2 7 C-4.31 7.33 -6.62 7.66 -9 8 C-9 8.66 -9 9.32 -9 10 C-8.01257813 10.45890625 -7.02515625 10.9178125 -6.0078125 11.390625 C-4.71323301 12.00977171 -3.41897893 12.62959914 -2.125 13.25 C-1.47402344 13.55035156 -0.82304687 13.85070312 -0.15234375 14.16015625 C2.59023508 15.48903465 4.6673957 16.53149287 6.453125 19.046875 C7.28632295 22.02258197 6.85928335 24.05388565 6 27 C3.46295169 30.26191926 1.00985645 31.99753589 -3 33 C-8.01159132 33 -11.93803035 32.07724973 -16 29 C-17.4783226 26.04335481 -17.06032783 23.25770263 -17 20 C-14.69 20 -12.38 20 -10 20 C-9.67 21.32 -9.34 22.64 -9 24 C-5.41672247 25.00217064 -5.41672247 25.00217064 -2 24 C-2.33 23.01 -2.66 22.02 -3 21 C-5.19315233 19.89763489 -5.19315233 19.89763489 -7.8125 19.0625 C-14.96465785 16.33055988 -14.96465785 16.33055988 -17 13 C-17.51829966 9.73471214 -17.77228425 8.07089406 -17 5 C-12.5059084 -0.83017289 -7.05593389 -1.30859308 0 0 Z " fill="#789930" transform="translate(457,256)"/>
<path d="M0 0 C7.59 0 15.18 0 23 0 C23 2.31 23 4.62 23 7 C18.05 7 13.1 7 8 7 C8 8.98 8 10.96 8 13 C11.3 13 14.6 13 18 13 C18 14.98 18 16.96 18 19 C14.7 19 11.4 19 8 19 C8 20.98 8 22.96 8 25 C8.99902344 24.98839844 9.99804688 24.97679687 11.02734375 24.96484375 C12.31769531 24.95582031 13.60804688 24.94679688 14.9375 24.9375 C16.22527344 24.92589844 17.51304687 24.91429687 18.83984375 24.90234375 C22 25 22 25 23 26 C23 27.98 23 29.96 23 32 C15.41 32 7.82 32 0 32 C0 21.44 0 10.88 0 0 Z " fill="#789831" transform="translate(525,256)"/>
<path d="M0 0 C1.23556641 0.01740234 1.23556641 0.01740234 2.49609375 0.03515625 C3.32238281 0.04417969 4.14867187 0.05320313 5 0.0625 C5.63808594 0.07410156 6.27617188 0.08570313 6.93359375 0.09765625 C8.22506847 3.84804692 9.50646448 7.60171718 10.77880859 11.35864258 C11.42540794 13.26107191 12.07984317 15.16083212 12.734375 17.06054688 C13.14042969 18.26259766 13.54648437 19.46464844 13.96484375 20.703125 C14.34189453 21.80809326 14.71894531 22.91306152 15.10742188 24.05151367 C15.88160538 26.90597217 16.10556443 29.1622123 15.93359375 32.09765625 C13.62359375 32.09765625 11.31359375 32.09765625 8.93359375 32.09765625 C8.70929687 31.453125 8.485 30.80859375 8.25390625 30.14453125 C7.10469919 27.85376773 7.10469919 27.85376773 4.55078125 27.48828125 C3.19339844 27.41867187 3.19339844 27.41867187 1.80859375 27.34765625 C0.89851562 27.2909375 -0.0115625 27.23421875 -0.94921875 27.17578125 C-1.99722656 27.13710938 -1.99722656 27.13710938 -3.06640625 27.09765625 C-3.39640625 28.74765625 -3.72640625 30.39765625 -4.06640625 32.09765625 C-6.70640625 32.09765625 -9.34640625 32.09765625 -12.06640625 32.09765625 C-10.80655788 24.84096905 -8.88713097 17.99810354 -6.50390625 11.03515625 C-6.18744141 10.08705078 -5.87097656 9.13894531 -5.54492188 8.16210938 C-2.83433834 0.13394794 -2.83433834 0.13394794 0 0 Z M1.93359375 12.09765625 C-0.19148869 15.2852799 -0.56842255 17.36277848 -1.06640625 21.09765625 C0.91359375 21.09765625 2.89359375 21.09765625 4.93359375 21.09765625 C4.27359375 18.12765625 3.61359375 15.15765625 2.93359375 12.09765625 C2.60359375 12.09765625 2.27359375 12.09765625 1.93359375 12.09765625 Z " fill="#789B2C" transform="translate(651.06640625,255.90234375)"/>
<path d="M0 0 C1.23556641 0.01740234 1.23556641 0.01740234 2.49609375 0.03515625 C3.32238281 0.04417969 4.14867187 0.05320313 5 0.0625 C5.63808594 0.07410156 6.27617187 0.08570313 6.93359375 0.09765625 C8.22284807 4.00961351 9.50435397 7.92401571 10.77880859 11.84082031 C11.21322077 13.17224019 11.64972471 14.5029795 12.08837891 15.83300781 C12.71939995 17.74753424 13.34222355 19.66475634 13.96484375 21.58203125 C14.34189453 22.73413086 14.71894531 23.88623047 15.10742188 25.07324219 C15.93359375 28.09765625 15.93359375 28.09765625 15.93359375 32.09765625 C13.29359375 32.09765625 10.65359375 32.09765625 7.93359375 32.09765625 C7.43859375 29.62265625 7.43859375 29.62265625 6.93359375 27.09765625 C3.63359375 27.09765625 0.33359375 27.09765625 -3.06640625 27.09765625 C-3.39640625 28.74765625 -3.72640625 30.39765625 -4.06640625 32.09765625 C-6.70640625 32.09765625 -9.34640625 32.09765625 -12.06640625 32.09765625 C-10.62915894 25.1064231 -8.69360321 18.38797423 -6.50390625 11.59765625 C-6.18744141 10.59734375 -5.87097656 9.59703125 -5.54492188 8.56640625 C-2.84695514 0.13454419 -2.84695514 0.13454419 0 0 Z M1.93359375 11.09765625 C0.94359375 14.39765625 -0.04640625 17.69765625 -1.06640625 21.09765625 C0.91359375 21.09765625 2.89359375 21.09765625 4.93359375 21.09765625 C4.27359375 17.79765625 3.61359375 14.49765625 2.93359375 11.09765625 C2.60359375 11.09765625 2.27359375 11.09765625 1.93359375 11.09765625 Z " fill="#779A2E" transform="translate(411.06640625,255.90234375)"/>
<path d="M0 0 C1.39638082 4.64765558 1.20569196 9.58861608 -1 14 C-0.34 14.33 0.32 14.66 1 15 C0.01 15.33 -0.98 15.66 -2 16 C-2.33 20.29 -2.66 24.58 -3 29 C-2.34 29 -1.68 29 -1 29 C-1.103125 27.96875 -1.20625 26.9375 -1.3125 25.875 C-0.90667442 20.84276284 0.54970448 19.53655291 4 16 C5 18 5 18 4.0390625 20.8984375 C3.33910156 22.61933594 3.33910156 22.61933594 2.625 24.375 C0.49561668 29.5870953 0.49561668 29.5870953 -1 35 C-1.66 35 -2.32 35 -3 35 C-7.86554564 25.26890871 -3.18796042 9.64927306 0 0 Z " fill="#6E8B31" transform="translate(110,85)"/>
<path d="M0 0 C0.33 0 0.66 0 1 0 C1.05444001 3.00024947 1.0938836 5.99949039 1.125 9 C1.14175781 9.83917969 1.15851562 10.67835938 1.17578125 11.54296875 C1.21849117 17.05254877 0.55502007 21.71048292 -1 27 C-2.32 27 -3.64 27 -5 27 C-5.125 24.125 -5.125 24.125 -5 21 C-4.34 20.34 -3.68 19.68 -3 19 C-3.66 18.67 -4.32 18.34 -5 18 C-5 14.26414791 -4.95542188 12.98459129 -3 10 C-2.01 9.67 -1.02 9.34 0 9 C0 6.03 0 3.06 0 0 Z M-2 11 C-1 13 -1 13 -1 13 Z " fill="#6EA229" transform="translate(586,260)"/>
<path d="M0 0 C0 0.33 0 0.66 0 1 C-1.41152344 1.07347656 -1.41152344 1.07347656 -2.8515625 1.1484375 C-4.71941406 1.26058594 -4.71941406 1.26058594 -6.625 1.375 C-7.85476563 1.44460937 -9.08453125 1.51421875 -10.3515625 1.5859375 C-13.84843372 1.98279869 -16.69326803 2.84821695 -20 4 C-22.33212027 4.07522969 -24.6685311 4.09325876 -27 4 C-27.33 4.66 -27.66 5.32 -28 6 C-29.375 7.625 -29.375 7.625 -31 9 C-31.99 9 -32.98 9 -34 9 C-33.01 10.485 -33.01 10.485 -32 12 C-32 13.32 -32 14.64 -32 16 C-31.34 16.33 -30.68 16.66 -30 17 C-30.99 17 -31.98 17 -33 17 C-33.67154933 15.71086513 -34.33708859 14.41859796 -35 13.125 C-35.37125 12.40570313 -35.7425 11.68640625 -36.125 10.9453125 C-37 9 -37 9 -37 7 C-24.02985008 1.25011967 -14.01186225 -0.30946444 0 0 Z " fill="#0C4534" transform="translate(505,137)"/>
<path d="M0 0 C0.66 0 1.32 0 2 0 C2.66691671 28.81422196 2.66691671 28.81422196 -1 40 C-1.66 40.66 -2.32 41.32 -3 42 C-3.625 40.1875 -3.625 40.1875 -4 38 C-3.34 37.01 -2.68 36.02 -2 35 C-1.75812349 32.25481679 -1.75812349 32.25481679 -1.875 29.3125 C-1.89304687 28.31863281 -1.91109375 27.32476562 -1.9296875 26.30078125 C-1.95289063 25.54152344 -1.97609375 24.78226563 -2 24 C-1.34 24 -0.68 24 0 24 C0 16.08 0 8.16 0 0 Z " fill="#0C4134" transform="translate(309,202)"/>
<path d="M0 0 C0.75 1.75 0.75 1.75 1 4 C-0.756096 6.27642074 -2.26566833 7.65731189 -4.875 8.875 C-7.88381402 9.05198906 -10.21810681 8.07482237 -13 7 C-11.8125 4.0625 -11.8125 4.0625 -10 1 C-6.70319897 -0.21461091 -3.49185117 -0.09976718 0 0 Z " fill="#739F2A" transform="translate(460,280)"/>
<path d="M0 0 C0.33 0 0.66 0 1 0 C3.01495472 9.7084182 -0.44093057 18.01758668 -4 27 C-4.66 26.67 -5.32 26.34 -6 26 C-6 21.38 -6 16.76 -6 12 C-5.34 12.66 -4.68 13.32 -4 14 C-0.72823308 12.30196325 -0.72823308 12.30196325 -0.25 9.0625 C0.20482638 5.96053558 0.20482638 5.96053558 -1 3 C-0.67 2.01 -0.34 1.02 0 0 Z " fill="#6F902F" transform="translate(96,94)"/>
<path d="M0 0 C-0.79664063 0.38091797 -0.79664063 0.38091797 -1.609375 0.76953125 C-5.3658089 2.59976456 -8.66656753 4.47118916 -12 7 C-14.63696435 8.15769166 -17.2674597 9.08915323 -20 10 C-20 10.66 -20 11.32 -20 12 C-20.66 12 -21.32 12 -22 12 C-22.33 12.99 -22.66 13.98 -23 15 C-25.5625 16.6875 -25.5625 16.6875 -28 18 C-28 15 -28 15 -26.19921875 13.16796875 C-20.11438221 8.37012718 -13.92362287 4.47287154 -7 1 C-5.94425781 0.39285156 -5.94425781 0.39285156 -4.8671875 -0.2265625 C-3 -1 -3 -1 0 0 Z " fill="#0C4235" transform="translate(186,113)"/>
<path d="M0 0 C3.96 0 7.92 0 12 0 C12.33 1.32 12.66 2.64 13 4 C7.72 4 2.44 4 -3 4 C-2.34 3.67 -1.68 3.34 -1 3 C-0.67 2.01 -0.34 1.02 0 0 Z " fill="#779A27" transform="translate(535,283)"/>
<path d="M0 0 C11.07666264 1.30906013 21.28778516 8.39557907 30 15 C27 16 27 16 24 15 C22.64631404 13.68733482 21.31200404 12.35432675 20 11 C19.34 10.67 18.68 10.34 18 10 C18 9.34 18 8.68 18 8 C17.071875 7.773125 16.14375 7.54625 15.1875 7.3125 C9.88056519 5.8165122 4.96924929 3.35432787 0 1 C0 0.67 0 0.34 0 0 Z " fill="#768F39" transform="translate(40,9)"/>
<path d="M0 0 C1.32 0.66 2.64 1.32 4 2 C4 9.59 4 17.18 4 25 C2.02 25.99 2.02 25.99 0 27 C-0.66 26.67 -1.32 26.34 -2 26 C-2 26.66 -2 27.32 -2 28 C-3.65 28.33 -5.3 28.66 -7 29 C-7 28.34 -7 27.68 -7 27 C-4.03 26.01 -1.06 25.02 2 24 C1.88625785 20.72841647 1.75950606 17.45823898 1.625 14.1875 C1.5940625 13.25873047 1.563125 12.32996094 1.53125 11.37304688 C1.49257813 10.48037109 1.45390625 9.58769531 1.4140625 8.66796875 C1.3826416 7.84578857 1.3512207 7.0236084 1.31884766 6.17651367 C1.11626378 3.71047063 1.11626378 3.71047063 -1 1 C-0.67 0.67 -0.34 0.34 0 0 Z " fill="#094032" transform="translate(436,132)"/>
<path d="M0 0 C2.97 0 5.94 0 9 0 C9.53190541 1.43344 10.05015258 2.87195367 10.5625 4.3125 C10.85253906 5.11300781 11.14257812 5.91351563 11.44140625 6.73828125 C12 9 12 9 11 12 C10.49384702 10.73160474 9.99530901 9.46016898 9.5 8.1875 C9.2215625 7.47980469 8.943125 6.77210938 8.65625 6.04296875 C8 4 8 4 8 1 C5.69 1 3.38 1 1 1 C1 1.66 1 2.32 1 3 C1.66 3 2.32 3 3 3 C3 3.66 3 4.32 3 5 C2.38125 5.04125 1.7625 5.0825 1.125 5.125 C0.42375 5.41375 -0.2775 5.7025 -1 6 C-2.3045656 8.99615946 -2.3045656 8.99615946 -3 12 C-4 10 -4 10 -3.22265625 7.6171875 C-2.83980469 6.71226562 -2.45695312 5.80734375 -2.0625 4.875 C-1.68222656 3.96492188 -1.30195313 3.05484375 -0.91015625 2.1171875 C-0.60980469 1.41851562 -0.30945313 0.71984375 0 0 Z " fill="#7A943C" transform="translate(409,256)"/>
<path d="M0 0 C0.66 0 1.32 0 2 0 C2.66 0.99 3.32 1.98 4 3 C4.66 2.67 5.32 2.34 6 2 C6 2.66 6 3.32 6 4 C6.66 4.33 7.32 4.66 8 5 C7.34 5 6.68 5 6 5 C6 5.99 6 6.98 6 8 C7.32 8 8.64 8 10 8 C10.33 5.36 10.66 2.72 11 0 C11.33 0 11.66 0 12 0 C12.09765625 6.15234375 12.09765625 6.15234375 12 8 C11 9 11 9 7.4375 9.0625 C6.303125 9.041875 5.16875 9.02125 4 9 C0 2.25 0 2.25 0 0 Z M6 1 C6.66 1 7.32 1 8 1 C7.67 1.66 7.34 2.32 7 3 C6.67 2.34 6.34 1.68 6 1 Z " fill="#74983C" transform="translate(575,279)"/>
<path d="M0 0 C0.99 0.33 1.98 0.66 3 1 C3 2.32 3 3.64 3 5 C3.66 5 4.32 5 5 5 C5 5.99 5 6.98 5 8 C5.66 8.33 6.32 8.66 7 9 C10.64325187 12.44631933 13.84087571 16.11879016 17 20 C13.05202829 20 12.37639753 18.80920231 9.625 16.0625 C0 6.1391721 0 6.1391721 0 0 Z " fill="#0C4033" transform="translate(140,228)"/>
<path d="M0 0 C0.33 0 0.66 0 1 0 C1.04898437 0.92683594 1.09796875 1.85367188 1.1484375 2.80859375 C1.22320312 4.00613281 1.29796875 5.20367187 1.375 6.4375 C1.44460938 7.63246094 1.51421875 8.82742187 1.5859375 10.05859375 C1.72257812 11.02925781 1.85921875 11.99992188 2 13 C2.66 13.33 3.32 13.66 4 14 C4.59355614 16.64860427 4.74209269 19.29197322 5 22 C1.74898509 19.36822603 0.10074234 15.96267244 -1 12 C-1.40305467 7.74317703 -1.35631769 4.06895308 0 0 Z " fill="#104737" transform="translate(468,181)"/>
<path d="M0 0 C2.31 0.66 4.62 1.32 7 2 C7 2.66 7 3.32 7 4 C7.78375 4.12375 8.5675 4.2475 9.375 4.375 C12 5 12 5 14 7 C15.96488831 7.88778692 15.96488831 7.88778692 18.125 8.625 C18.84945312 8.88539062 19.57390625 9.14578125 20.3203125 9.4140625 C20.87460938 9.60742188 21.42890625 9.80078125 22 10 C22 10.66 22 11.32 22 12 C16.09078502 10.39750102 11.13928529 8.09409961 5.9375 4.875 C5.35331299 4.5140625 4.76912598 4.153125 4.16723633 3.78125 C2.75653767 2.88740848 1.37500122 1.94783701 0 1 C0 0.67 0 0.34 0 0 Z " fill="#769237" transform="translate(52,111)"/>
<path d="M0 0 C2.31 0 4.62 0 7 0 C7.33 0.99 7.66 1.98 8 3 C6.02 3 4.04 3 2 3 C1.67 7.29 1.34 11.58 1 16 C0.67 16 0.34 16 0 16 C0 10.72 0 5.44 0 0 Z " fill="#708C37" transform="translate(579,256)"/>
<path d="M0 0 C1.16472754 3.49418263 0.6082734 5.4263938 0 9 C0.33 9.66 0.66 10.32 1 11 C0.34 11 -0.32 11 -1 11 C-1 11.66 -1 12.32 -1 13 C-1.99 13.495 -1.99 13.495 -3 14 C-4.13350534 16.01669827 -4.13350534 16.01669827 -5 18 C-6.35114472 14.94255252 -5.9224598 13.77959635 -4.78515625 10.546875 C-4.22254947 9.27604557 -3.64790949 8.01048782 -3.0625 6.75 C-2.77181641 6.1003125 -2.48113281 5.450625 -2.18164062 4.78125 C-1.46471025 3.18284785 -0.73371051 1.59076946 0 0 Z " fill="#0B4335" transform="translate(141,151)"/>
<path d="M0 0 C-0.556875 0.226875 -1.11375 0.45375 -1.6875 0.6875 C-4.18402034 1.96256642 -4.18402034 1.96256642 -6.375 4.4375 C-9.12048481 7.11761612 -11.51897812 8.4446498 -15 10 C-15.78375 10.391875 -16.5675 10.78375 -17.375 11.1875 C-17.91125 11.455625 -18.4475 11.72375 -19 12 C-19 11.34 -19 10.68 -19 10 C-17.07304071 8.39420059 -15.15227545 6.905767 -13.125 5.4375 C-12.29162109 4.8197168 -12.29162109 4.8197168 -11.44140625 4.18945312 C-7.26278767 1.11338571 -5.18196893 -0.1363676 0 0 Z " fill="#0C3F32" transform="translate(181,180)"/>
<path d="M0 0 C0.66 0 1.32 0 2 0 C2.90483637 5.36489595 3.12303662 10.50317457 3.0625 15.9375 C3.05798828 16.71673828 3.05347656 17.49597656 3.04882812 18.29882812 C3.03716908 20.19925268 3.01923877 22.09963706 3 24 C2.67 24 2.34 24 2 24 C1.92652344 22.39318359 1.92652344 22.39318359 1.8515625 20.75390625 C1.77654706 19.35674361 1.7009987 17.9596095 1.625 16.5625 C1.5940625 15.85544922 1.563125 15.14839844 1.53125 14.41992188 C1.42719371 12.60760812 1.22080108 10.80182012 1 9 C0.34 8.67 -0.32 8.34 -1 8 C-1.125 2.25 -1.125 2.25 0 0 Z " fill="#275437" transform="translate(100,104)"/>
<path d="M0 0 C-0.33 0.66 -0.66 1.32 -1 2 C-1.66 2 -2.32 2 -3 2 C-2.40072174 5.35595828 -1.15377564 7.37801226 1 10 C0.01 10.99 -0.98 11.98 -2 13 C-2.67057887 11.2097939 -3.3363469 9.41778511 -4 7.625 C-4.37125 6.62726563 -4.7425 5.62953125 -5.125 4.6015625 C-6 2 -6 2 -6 0 C-2.25 -1.125 -2.25 -1.125 0 0 Z " fill="#0B4034" transform="translate(674,183)"/>
<path d="M0 0 C0 4.24645065 -1.81750806 6.38524772 -4 10 C-3.34 10.33 -2.68 10.66 -2 11 C-4.64 12.65 -7.28 14.3 -10 16 C-8.61936434 12.14254559 -6.82183102 9.07512134 -4.4375 5.75 C-3.81746094 4.87859375 -3.19742188 4.0071875 -2.55859375 3.109375 C-1 1 -1 1 0 0 Z " fill="#0B4133" transform="translate(152,135)"/>
<path d="M0 0 C-3.4352048 2.29013653 -4.985331 2.17842973 -9 2 C-9 2.66 -9 3.32 -9 4 C-10.32267727 5.01405257 -11.65724831 6.01268258 -13 7 C-13.66 7.99 -14.32 8.98 -15 10 C-15.75 8.25 -15.75 8.25 -16 6 C-11.9694962 0.51851484 -6.4684717 -0.30802246 0 0 Z " fill="#0C4035" transform="translate(408,156)"/>
<path d="M0 0 C2.05078125 0.03255208 4.1015625 0.06510417 6.15234375 0.09765625 C6.15234375 0.42765625 6.15234375 0.75765625 6.15234375 1.09765625 C3.84234375 1.42765625 1.53234375 1.75765625 -0.84765625 2.09765625 C-0.78578125 2.84015625 -0.72390625 3.58265625 -0.66015625 4.34765625 C-0.88438095 7.63628516 -1.80552694 8.58426633 -3.84765625 11.09765625 C-4.55928068 12.74562861 -5.23797578 14.40931033 -5.84765625 16.09765625 C-7.12476309 12.26633573 -6.28930043 10.7409827 -4.97265625 6.97265625 C-4.60398437 5.89757812 -4.2353125 4.8225 -3.85546875 3.71484375 C-2.47535708 0.13083283 -2.47535708 0.13083283 0 0 Z " fill="#79923A" transform="translate(650.84765625,255.90234375)"/>
<path d="M0 0 C2.06947096 3.10420644 3.32446144 6.0318675 4.6875 9.5 C5.14511719 10.6446875 5.60273437 11.789375 6.07421875 12.96875 C7 16 7 16 6 19 C5.87625 18.195625 5.7525 17.39125 5.625 16.5625 C5.41875 15.716875 5.2125 14.87125 5 14 C4.34 13.67 3.68 13.34 3 13 C2.67 12.01 2.34 11.02 2 10 C1.34 9.34 0.68 8.68 0 8 C-0.26991906 5.31160615 -0.08737357 2.70858064 0 0 Z " fill="#759035" transform="translate(90,50)"/>
<path d="M0 0 C6.36734694 0.36734694 6.36734694 0.36734694 9.4375 3.4375 C11 6 11 6 11 8 C6.40378078 6.5129879 3.53027653 4.20187872 0 1 C0 0.67 0 0.34 0 0 Z " fill="#084134" transform="translate(108,291)"/>
<path d="M0 0 C0.66 0 1.32 0 2 0 C3.44681324 2.89362649 3.43242376 5.8083009 3.71875 9.00390625 C3.79532012 10.99583131 3.79532012 10.99583131 5 12 C5.04063832 13.66617115 5.042721 15.33388095 5 17 C2.71636622 14.71636622 2.2847151 13.25204532 1.375 10.1875 C1.11460938 9.33542969 0.85421875 8.48335937 0.5859375 7.60546875 C-0.0044509 4.98020834 -0.10588413 2.68079363 0 0 Z " fill="#0B3F32" transform="translate(75,235)"/>
<path d="M0 0 C0.99 0.33 1.98 0.66 3 1 C2.50628906 1.32871094 2.01257813 1.65742188 1.50390625 1.99609375 C-2.55090644 4.98020187 -2.55090644 4.98020187 -4.6875 9.40234375 C-4.91160484 11.6188807 -5.03463886 13.77321644 -5 16 C-5.33 16 -5.66 16 -6 16 C-6.62739631 7.0247473 -6.62739631 7.0247473 -4.125 2.9375 C-2 1 -2 1 0 0 Z " fill="#0E4034" transform="translate(589,159)"/>
<path d="M0 0 C1.20349516 4.81398062 1.29219087 9.41561827 -1 14 C-0.34 14.33 0.32 14.66 1 15 C-0.65 15.33 -2.3 15.66 -4 16 C-2.68 10.72 -1.36 5.44 0 0 Z " fill="#77913C" transform="translate(110,85)"/>
<path d="M0 0 C3 1 3 1 4.6875 3 C6.46517964 7.06326776 6.25700142 10.63097593 6 15 C3.95349609 11.93024413 3.00295435 9.30915848 1.875 5.8125 C1.52179688 4.72582031 1.16859375 3.63914062 0.8046875 2.51953125 C0.53914063 1.68808594 0.27359375 0.85664062 0 0 Z " fill="#779436" transform="translate(81,75)"/>
<path d="M0 0 C2.64 0 5.28 0 8 0 C7.67 0.99 7.34 1.98 7 3 C7 2.34 7 1.68 7 1 C5.68 1.33 4.36 1.66 3 2 C2.957279 3.66611905 2.95936168 5.33382885 3 7 C3.33 7.33 3.66 7.66 4 8 C4.04080783 9.99958364 4.04254356 12.00045254 4 14 C1.90284215 10.85426323 1.47995441 8.98543749 0.875 5.3125 C0.70742188 4.31863281 0.53984375 3.32476562 0.3671875 2.30078125 C0.24601562 1.54152344 0.12484375 0.78226562 0 0 Z " fill="#738E3B" transform="translate(475,256)"/>
<path d="M0 0 C1.98 0.99 1.98 0.99 4 2 C4 2.66 4 3.32 4 4 C6.93720508 5.52299523 9.9168649 6.80100302 13 8 C13 8.99 13 9.98 13 11 C6.82508047 8.88288473 3.05265608 5.78397994 0 0 Z " fill="#0A4133" transform="translate(583,197)"/>
<path d="M0 0 C0.66 0.33 1.32 0.66 2 1 C1.34 2.32 0.68 3.64 0 5 C-1.32 5 -2.64 5 -4 5 C-4.33 5.99 -4.66 6.98 -5 8 C-5.99 8.33 -6.98 8.66 -8 9 C-6.64531705 4.12314139 -4.28324091 2.51407619 0 0 Z " fill="#0A4234" transform="translate(477,172)"/>
<path d="M0 0 C3.57011026 3.732388 4.10913442 8.0949989 5 13 C1.38916346 10.68536119 0.15211392 9.63018624 -0.875 5.375 C-1 2 -1 2 0 0 Z " fill="#789335" transform="translate(74,75)"/>
<path d="M0 0 C-1.57347176 1.035969 -3.15921546 2.05331732 -4.75 3.0625 C-5.63171875 3.63097656 -6.5134375 4.19945312 -7.421875 4.78515625 C-10 6 -10 6 -12.328125 5.68359375 C-13.15570313 5.34521484 -13.15570313 5.34521484 -14 5 C-13.01 5 -12.02 5 -11 5 C-11 4.34 -11 3.68 -11 3 C-10.01 3 -9.02 3 -8 3 C-8 2.34 -8 1.68 -8 1 C-3.375 -1.125 -3.375 -1.125 0 0 Z " fill="#0E4335" transform="translate(525,203)"/>
<path d="M0 0 C5.1576857 1.41836357 9.79975258 3.67391575 14 7 C14 7.66 14 8.32 14 9 C10.59687262 7.94124926 7.98646769 6.99097846 5 5 C5 4.34 5 3.68 5 3 C2.525 2.01 2.525 2.01 0 1 C0 0.67 0 0.34 0 0 Z " fill="#0A3F31" transform="translate(251,117)"/>
<path d="M0 0 C0 1.65 0 3.3 0 5 C-0.99 5.33 -1.98 5.66 -3 6 C-3.33 6.66 -3.66 7.32 -4 8 C-4.66 6.35 -5.32 4.7 -6 3 C-1.125 0 -1.125 0 0 0 Z " fill="#6FA324" transform="translate(95,102)"/>
<path d="M0 0 C0.93045933 2.55144824 1.08564091 3.74006478 0.22265625 6.359375 C-0.16019531 7.14828125 -0.54304687 7.9371875 -0.9375 8.75 C-1.50791016 9.94882813 -1.50791016 9.94882813 -2.08984375 11.171875 C-2.39019531 11.77515625 -2.69054687 12.3784375 -3 13 C-4.046875 11.12890625 -4.046875 11.12890625 -5 9 C-4.03284133 6.34031367 -2.58051758 4.37077638 -1 2 C-0.67 1.34 -0.34 0.68 0 0 Z " fill="#789236" transform="translate(181,74)"/>
<path d="M0 0 C0.33 0.66 0.66 1.32 1 2 C0.1875 4.375 0.1875 4.375 -1 7 C-1.4640625 8.11375 -1.4640625 8.11375 -1.9375 9.25 C-3 11 -3 11 -6 12 C-4.68139111 7.38486888 -2.78644563 3.90102388 0 0 Z " fill="#768F38" transform="translate(117,73)"/>
<path d="M0 0 C0 0.66 0 1.32 0 2 C-1.269553 2.64834654 -2.54069706 3.29357815 -3.8125 3.9375 C-4.52019531 4.29714844 -5.22789062 4.65679687 -5.95703125 5.02734375 C-10.47086614 7.17637795 -10.47086614 7.17637795 -14 6 C-12.04414675 4.99515796 -10.08523763 3.99626195 -8.125 3 C-6.48917969 2.1646875 -6.48917969 2.1646875 -4.8203125 1.3125 C-2 0 -2 0 0 0 Z " fill="#778F37" transform="translate(149,49)"/>
<path d="M0 0 C-8.261959 5.74031891 -8.261959 5.74031891 -13 5 C-4.82022472 -1.60674157 -4.82022472 -1.60674157 0 0 Z " fill="#104336" transform="translate(252,287)"/>
<path d="M0 0 C0.33 0.66 0.66 1.32 1 2 C0.01 3.485 0.01 3.485 -1 5 C-0.67 5.66 -0.34 6.32 0 7 C-1.65 7 -3.3 7 -5 7 C-4.75 4.625 -4.75 4.625 -4 2 C-1.9375 0.6875 -1.9375 0.6875 0 0 Z " fill="#779B25" transform="translate(489,280)"/>
<path d="M0 0 C0.66 0.66 1.32 1.32 2 2 C1.67582137 5.80909895 1.14418558 7.78372163 -1 11 C-1.66 11 -2.32 11 -3 11 C-2.45276317 7.62537285 -1.9451 5.91765 0 3 C0 2.01 0 1.02 0 0 Z " fill="#739636" transform="translate(462,275)"/>
<path d="M0 0 C0.99 0.99 1.98 1.98 3 3 C2.67 3.66 2.34 4.32 2 5 C1.34 5 0.68 5 0 5 C0 4.34 0 3.68 0 3 C-0.66 3 -1.32 3 -2 3 C-2 4.98 -2 6.96 -2 9 C-2.66 9 -3.32 9 -4 9 C-4 7.02 -4 5.04 -4 3 C-2.68 2.67 -1.36 2.34 0 2 C0 1.34 0 0.68 0 0 Z " fill="#6CA22B" transform="translate(460,259)"/>
<path d="M0 0 C2.31 0 4.62 0 7 0 C4.47211993 2.79872437 2.79588866 4.45773019 -1 5 C-1.33 4.34 -1.66 3.68 -2 3 C-1.34 3 -0.68 3 0 3 C0 2.01 0 1.02 0 0 Z " fill="#024B36" transform="translate(581,184)"/>
<path d="M0 0 C-1.2491742 3.45925163 -2.67527795 6.14693203 -5 9 C-5.75 6.75 -5.75 6.75 -6 4 C-2.86486486 0 -2.86486486 0 0 0 Z " fill="#094132" transform="translate(162,151)"/>
<path d="M0 0 C0.33 0.66 0.66 1.32 1 2 C-0.1875 5.5625 -0.1875 5.5625 -2 9 C-4.1875 9.9375 -4.1875 9.9375 -6 10 C-4.6302836 6.00499382 -2.74277578 3.19990508 0 0 Z " fill="#799437" transform="translate(127,91)"/>
<path d="M0 0 C0 0.99 0 1.98 0 3 C-1.63260714 4.37482707 -3.30225062 5.70647667 -5 7 C-5.99 8.485 -5.99 8.485 -7 10 C-7.99 9.67 -8.98 9.34 -10 9 C-6.7 6.03 -3.4 3.06 0 0 Z " fill="#768E38" transform="translate(147,70)"/>
<path d="M0 0 C1.16959987 0.97566112 2.33561177 1.955625 3.5 2.9375 C4.1496875 3.48277344 4.799375 4.02804688 5.46875 4.58984375 C5.9740625 5.05519531 6.479375 5.52054688 7 6 C7 6.33 7 6.66 7 7 C5.02 7 3.04 7 1 7 C0.67 4.69 0.34 2.38 0 0 Z " fill="#779431" transform="translate(74,29)"/>
<path d="M0 0 C3 1 3 1 4.75 3.9375 C5.1625 4.948125 5.575 5.95875 6 7 C5.67 7.66 5.34 8.32 5 9 C3.02 6.69 1.04 4.38 -1 2 C-0.67 1.34 -0.34 0.68 0 0 Z " fill="#0B3E31" transform="translate(91,271)"/>
<path d="M0 0 C0.66 0 1.32 0 2 0 C0.77472971 4.05281712 -0.69880494 7.44360764 -3 11 C-3.75 9.4375 -3.75 9.4375 -4 7 C-2.86915563 4.49713591 -1.47860484 2.32992278 0 0 Z " fill="#0B3F33" transform="translate(301,253)"/>
<path d="M0 0 C0.99 0.66 1.98 1.32 3 2 C2.071875 2.556875 2.071875 2.556875 1.125 3.125 C-1.5510596 5.48622906 -2.0936844 7.60131652 -3 11 C-3.33 11 -3.66 11 -4 11 C-4.36630156 7.06225823 -4.30233203 5.43460229 -2 2.125 C-1.34 1.42375 -0.68 0.7225 0 0 Z " fill="#104132" transform="translate(159,194)"/>
<path d="M0 0 C4.61487965 1.45733042 4.61487965 1.45733042 6.375 3.9375 C7 6 7 6 6 9 C4.99712471 7.68969568 3.99777175 6.37669473 3 5.0625 C2.443125 4.33160156 1.88625 3.60070312 1.3125 2.84765625 C0 1 0 1 0 0 Z " fill="#0D3F31" transform="translate(271,153)"/>
<path d="M0 0 C0.66 0.33 1.32 0.66 2 1 C2 1.66 2 2.32 2 3 C2.61875 3.268125 3.2375 3.53625 3.875 3.8125 C6 5 6 5 8 8 C5 8 5 8 3.39453125 6.46875 C2.87246094 5.8190625 2.35039062 5.169375 1.8125 4.5 C1.28269531 3.8503125 0.75289063 3.200625 0.20703125 2.53125 C-0.19128906 2.0259375 -0.58960938 1.520625 -1 1 C-0.67 0.67 -0.34 0.34 0 0 Z " fill="#0A4435" transform="translate(263,143)"/>
<path d="M0 0 C3.0916909 2.52956528 3.90931332 5.22454612 5 9 C4.34 8.67 3.68 8.34 3 8 C3 7.34 3 6.68 3 6 C2.34 6 1.68 6 1 6 C1 6.66 1 7.32 1 8 C0.34 7.67 -0.32 7.34 -1 7 C-0.67 4.69 -0.34 2.38 0 0 Z " fill="#759631" transform="translate(68,63)"/>
<path d="M0 0 C1.32 0 2.64 0 4 0 C4 1.98 4 3.96 4 6 C2.68 6 1.36 6 0 6 C0 4.02 0 2.04 0 0 Z " fill="#759B25" transform="translate(581,281)"/>
<path d="M0 0 C2.31 0 4.62 0 7 0 C7 0.33 7 0.66 7 1 C5.02 1 3.04 1 1 1 C1.33 1.99 1.66 2.98 2 4 C1.0625 6.6875 1.0625 6.6875 0 9 C-0.66 8.67 -1.32 8.34 -2 8 C-1.34 5.36 -0.68 2.72 0 0 Z " fill="#749434" transform="translate(490,256)"/>
<path d="M0 0 C4.75 1.875 4.75 1.875 7 3 C7 2.34 7 1.68 7 1 C8.32 0.67 9.64 0.34 11 0 C10.67 0.99 10.34 1.98 10 3 C7.69 3.33 5.38 3.66 3 4 C2.01 2.68 1.02 1.36 0 0 Z " fill="#0D4034" transform="translate(262,223)"/>
<path d="M0 0 C2.64 1.65 5.28 3.3 8 5 C3.01298701 6.24675325 3.01298701 6.24675325 0 5 C-0.33 4.01 -0.66 3.02 -1 2 C-0.67 1.34 -0.34 0.68 0 0 Z " fill="#0C4034" transform="translate(234,177)"/>
<path d="M0 0 C0.66 0.33 1.32 0.66 2 1 C1.38125 1.4125 0.7625 1.825 0.125 2.25 C-2.06768281 4.05573879 -2.92788417 5.4090534 -4 8 C-4.99 8 -5.98 8 -7 8 C-5.50902342 4.2047869 -3.24299151 2.38957269 0 0 Z " fill="#0C3D32" transform="translate(327,173)"/>
<path d="M0 0 C3.375 0.3125 3.375 0.3125 7 1 C7.66 1.99 8.32 2.98 9 4 C8.67 4.99 8.34 5.98 8 7 C6.66382648 6.02471263 5.3311249 5.04466681 4 4.0625 C3.2575 3.51722656 2.515 2.97195312 1.75 2.41015625 C1.1725 1.94480469 0.595 1.47945312 0 1 C0 0.67 0 0.34 0 0 Z " fill="#0F4135" transform="translate(252,137)"/>
<path d="M0 0 C3.27481575 0.97359387 4.76205109 1.69066641 6.875 4.4375 C8 7 8 7 7 10 C5.83043409 8.52312468 4.66441854 7.04343707 3.5 5.5625 C2.8503125 4.73878906 2.200625 3.91507813 1.53125 3.06640625 C0 1 0 1 0 0 Z " fill="#738F33" transform="translate(65,49)"/>
<path d="M0 0 C2.31 0.33 4.62 0.66 7 1 C7 2.65 7 4.3 7 6 C5 6 5 6 3.5 4.5625 C3.005 4.046875 2.51 3.53125 2 3 C1.34 2.67 0.68 2.34 0 2 C0 1.34 0 0.68 0 0 Z " fill="#6F9E24" transform="translate(618,256)"/>
<path d="M0 0 C0.66 0.66 1.32 1.32 2 2 C-0.875 7.875 -0.875 7.875 -2 9 C-3.66617115 9.04063832 -5.33388095 9.042721 -7 9 C-6.21625 8.443125 -5.4325 7.88625 -4.625 7.3125 C-1.91295142 4.92331435 -1.03866457 3.39926587 0 0 Z " fill="#0C4436" transform="translate(447,190)"/>
<path d="M0 0 C0.66 0.33 1.32 0.66 2 1 C2 2.32 2 3.64 2 5 C2.66 5 3.32 5 4 5 C4 6.65 4 8.3 4 10 C-0.60921053 4.64736842 -0.60921053 4.64736842 -1 1 C-0.67 0.67 -0.34 0.34 0 0 Z " fill="#0D4034" transform="translate(281,164)"/>
<path d="M0 0 C3.91402949 1.26941497 5.79072873 2.51167694 8 6 C4.06830895 6 2.83572772 4.60580385 0 2 C0 1.34 0 0.68 0 0 Z " fill="#064132" transform="translate(267,127)"/>
<path d="M0 0 C0.66 1.32 1.32 2.64 2 4 C0.02 4.99 0.02 4.99 -2 6 C-2.66 5.01 -3.32 4.02 -4 3 C-3 1 -3 1 0 0 Z " fill="#709822" transform="translate(166,56)"/>
<path d="M0 0 C2.97 0.495 2.97 0.495 6 1 C6 2.32 6 3.64 6 5 C4.68 5 3.36 5 2 5 C1.34 3.35 0.68 1.7 0 0 Z " fill="#769B21" transform="translate(419,282)"/>
<path d="M0 0 C2.45823172 3.68734758 3.01242616 6.69699971 4 11 C1.4375 8.875 1.4375 8.875 -1 6 C-0.8125 2.6875 -0.8125 2.6875 0 0 Z " fill="#7F983C" transform="translate(659,262)"/>
<path d="M0 0 C1.2077558 3.62326739 0.54311128 4.64146369 -1 8 C-1.66 7.67 -2.32 7.34 -3 7 C-3 5.02 -3 3.04 -3 1 C-2.01 1.33 -1.02 1.66 0 2 C0 1.34 0 0.68 0 0 Z " fill="#617D37" transform="translate(93,113)"/>
<path d="M0 0 C0.99 0 1.98 0 3 0 C3 0.66 3 1.32 3 2 C3.66 2.33 4.32 2.66 5 3 C4.01 3.66 3.02 4.32 2 5 C1.01 4.67 0.02 4.34 -1 4 C-0.34 4 0.32 4 1 4 C0.67 2.68 0.34 1.36 0 0 Z M-3 4 C-2.34 4.66 -1.68 5.32 -1 6 C-1.66 6 -2.32 6 -3 6 C-3 5.34 -3 4.68 -3 4 Z " fill="#6C9E25" transform="translate(44,33)"/>
<path d="M0 0 C2.5 2.3125 2.5 2.3125 5 5 C5 5.99 5 6.98 5 8 C2.5 5.6875 2.5 5.6875 0 3 C0 2.01 0 1.02 0 0 Z " fill="#074333" transform="translate(287,146)"/>
</svg>
